<svg width="15" height="12" viewBox="0 0 15 12" fill="none" xmlns="http://www.w3.org/2000/svg">
<path d="M13.5 0.333333C12.76 0.1 11.9466 0 11.1666 0C9.86663 0 8.46663 0.266667 7.49996 1C6.53329 0.266667 5.13329 0 3.83329 0C2.53329 0 1.13329 0.266667 0.166626 1V10.7667C0.166626 10.9333 0.333293 11.1 0.499959 11.1C0.566626 11.1 0.599959 11.0667 0.666626 11.0667C1.56663 10.6333 2.86663 10.3333 3.83329 10.3333C5.13329 10.3333 6.53329 10.6 7.49996 11.3333C8.39996 10.7667 10.0333 10.3333 11.1666 10.3333C12.2666 10.3333 13.4 10.5333 14.3333 11.0333C14.4 11.0667 14.4333 11.0667 14.5 11.0667C14.6666 11.0667 14.8333 10.9 14.8333 10.7333V1C14.4333 0.7 14 0.5 13.5 0.333333ZM13.5 9.33333C12.7666 9.1 11.9666 9 11.1666 9C10.0333 9 8.39996 9.43333 7.49996 10V2.33333C8.39996 1.76667 10.0333 1.33333 11.1666 1.33333C11.9666 1.33333 12.7666 1.43333 13.5 1.66667V9.33333Z" fill="white"/>
</svg>
