<svg width="14" height="15" viewBox="0 0 14 15" fill="none" xmlns="http://www.w3.org/2000/svg">
<path d="M1.16004 4.09935C0.673374 4.28602 0.333374 4.77935 0.333374 5.33268V13.3327C0.333374 14.066 0.926707 14.666 1.66671 14.666H12.3334C13.0734 14.666 13.6667 14.066 13.6667 13.3327V5.33268C13.6667 4.59268 13.0734 3.99935 12.3334 3.99935H4.53337L10.04 1.77268L9.58671 0.666016L1.16004 4.09935ZM3.66671 13.3327C2.56004 13.3327 1.66671 12.4393 1.66671 11.3327C1.66671 10.226 2.56004 9.33268 3.66671 9.33268C4.77337 9.33268 5.66671 10.226 5.66671 11.3327C5.66671 12.4393 4.77337 13.3327 3.66671 13.3327ZM12.3334 7.99935H11V6.66602H9.66671V7.99935H1.66671V5.33268H12.3334V7.99935Z" fill="white"/>
</svg>
