<svg width="278" height="119" viewBox="0 0 278 119" fill="none" xmlns="http://www.w3.org/2000/svg">
<path fill-rule="evenodd" clip-rule="evenodd" d="M130 74.5V112.5H168V74.5H130ZM129 68.5C126.239 68.5 124 70.7386 124 73.5V113.5C124 116.261 126.239 118.5 129 118.5H169C171.761 118.5 174 116.261 174 113.5V73.5C174 70.7386 171.761 68.5 169 68.5H129Z" fill="white"/>
<path fill-rule="evenodd" clip-rule="evenodd" d="M182 112.5L220 112.5L220 74.5L182 74.5L182 112.5ZM176 113.5C176 116.261 178.239 118.5 181 118.5L221 118.5C223.761 118.5 226 116.261 226 113.5L226 73.5C226 70.7386 223.761 68.5 221 68.5L181 68.5C178.239 68.5 176 70.7386 176 73.5L176 113.5Z" fill="#696868"/>
<path fill-rule="evenodd" clip-rule="evenodd" d="M220 22.5L182 22.5L182 60.5L220 60.5L220 22.5ZM226 21.5C226 18.7386 223.761 16.5 221 16.5L181 16.5C178.239 16.5 176 18.7386 176 21.5L176 61.5C176 64.2614 178.239 66.5 181 66.5L221 66.5C223.761 66.5 226 64.2614 226 61.5L226 21.5Z" fill="#696868"/>
<path d="M201 100.5L194.938 90L207.062 90L201 100.5Z" fill="#696868"/>
<path d="M201 34.5L207.062 45H194.938L201 34.5Z" fill="#696868"/>
<path fill-rule="evenodd" clip-rule="evenodd" d="M272 112.5L272 74.5L234 74.5L234 112.5L272 112.5ZM273 118.5C275.761 118.5 278 116.261 278 113.5L278 73.5C278 70.7386 275.761 68.5 273 68.5L233 68.5C230.239 68.5 228 70.7386 228 73.5L228 113.5C228 116.261 230.239 118.5 233 118.5L273 118.5Z" fill="white"/>
<g clip-path="url(#clip0_1759_9356)">
<path d="M18.375 39.2916L21.2537 36.4128L11.9029 27.0416L44.9166 27.0416L44.9166 22.9583L11.9029 22.9583L21.2741 13.587L18.375 10.7083L4.0833 24.9999L18.375 39.2916Z" fill="white"/>
</g>
<path d="M66.625 10.7084L63.7463 13.5872L73.0971 22.9584L40.0834 22.9584L40.0834 27.0417L73.0971 27.0417L63.7259 36.413L66.625 39.2917L80.9167 25.0001L66.625 10.7084Z" fill="white"/>
<path d="M142 93.5001L152.5 87.4379L152.5 99.5623L142 93.5001Z" fill="white"/>
<path d="M260 93.4999L249.5 99.5621L249.5 87.4377L260 93.4999Z" fill="white"/>
<path d="M60.8971 114.988C60.8971 114.988 49.8254 115.644 41.5216 107.336C35.1062 100.926 25.8983 90.6182 22.0293 86.2338C21.1904 85.3023 20.5842 84.1759 20.2628 82.9514C19.9414 81.7268 19.9144 80.4406 20.184 79.203C20.5162 77.7615 21.4142 75.2444 24.6096 74.4433C27.9281 73.62 30.8006 76.3674 33.0579 78.9948L39.1935 85.9152V37.728C39.1935 36.0909 39.8394 33.5392 41.0695 32.492C42.1198 31.5532 43.4594 31.0248 44.8524 31C46.1263 31.0413 47.3442 31.5467 48.2877 32.4257C49.81 33.9555 50.0561 35.8354 50.0561 37.3652V66.8952C50.0561 66.8952 50.3298 57.4987 56.8498 57.4956C57.5225 57.4909 58.1883 57.635 58.8018 57.918C59.4153 58.2011 59.9621 58.6164 60.405 59.1358C62.7577 62.085 62.6993 67.9897 62.6993 67.9897C62.6993 67.9897 62.6132 60.6088 68.5734 60.653C74.9704 60.7034 74.3215 71.8757 74.2692 72.7147C74.2692 72.7147 74.4384 66.7627 79.0177 66.6775C86.0913 66.5451 84.9195 76.9257 84.938 92.025C84.9595 108.011 69.6683 114.988 60.8971 114.988Z" stroke="white" stroke-width="4" stroke-linejoin="round"/>
<defs>
<clipPath id="clip0_1759_9356">
<rect width="49" height="49" fill="white" transform="translate(49 0.5) rotate(90)"/>
</clipPath>
</defs>
</svg>
