<svg width="278" height="119" viewBox="0 0 278 119" fill="none" xmlns="http://www.w3.org/2000/svg">
<mask id="path-1-inside-1_1759_9218" fill="white">
<rect x="124" y="68.5" width="50" height="50" rx="5"/>
</mask>
<rect x="124" y="68.5" width="50" height="50" rx="5" stroke="white" stroke-width="12" mask="url(#path-1-inside-1_1759_9218)"/>
<g opacity="0.3">
<mask id="path-2-inside-2_1759_9218" fill="white">
<rect x="176" y="118.5" width="50" height="50" rx="5" transform="rotate(-90 176 118.5)"/>
</mask>
<rect x="176" y="118.5" width="50" height="50" rx="5" transform="rotate(-90 176 118.5)" stroke="white" stroke-width="12" mask="url(#path-2-inside-2_1759_9218)"/>
<mask id="path-3-inside-3_1759_9218" fill="white">
<rect x="226" y="16.5" width="50" height="50" rx="5" transform="rotate(90 226 16.5)"/>
</mask>
<rect x="226" y="16.5" width="50" height="50" rx="5" transform="rotate(90 226 16.5)" stroke="white" stroke-width="12" mask="url(#path-3-inside-3_1759_9218)"/>
<path d="M201 100.5L194.938 90L207.062 90L201 100.5Z" fill="white"/>
<path d="M201 34.5L207.062 45H194.938L201 34.5Z" fill="white"/>
</g>
<mask id="path-6-inside-4_1759_9218" fill="white">
<rect x="278" y="118.5" width="50" height="50" rx="5" transform="rotate(-180 278 118.5)"/>
</mask>
<rect x="278" y="118.5" width="50" height="50" rx="5" transform="rotate(-180 278 118.5)" stroke="white" stroke-width="12" mask="url(#path-6-inside-4_1759_9218)"/>
<g clip-path="url(#clip0_1759_9218)">
<path d="M18.375 39.2916L21.2537 36.4128L11.9029 27.0416L44.9166 27.0416L44.9166 22.9583L11.9029 22.9583L21.2741 13.587L18.375 10.7083L4.0833 24.9999L18.375 39.2916Z" fill="white"/>
</g>
<path d="M66.625 10.7084L63.7463 13.5872L73.0971 22.9584L40.0834 22.9584L40.0834 27.0417L73.0971 27.0417L63.7259 36.413L66.625 39.2917L80.9167 25.0001L66.625 10.7084Z" fill="white"/>
<path d="M142 93.5L152.5 87.4378L152.5 99.5622L142 93.5Z" fill="white"/>
<path d="M260 93.5L249.5 99.5622L249.5 87.4378L260 93.5Z" fill="white"/>
<path d="M60.8971 115.488C60.8971 115.488 49.8254 116.144 41.5216 107.836C35.1062 101.426 25.8983 91.1182 22.0293 86.7338C21.1904 85.8023 20.5842 84.6759 20.2628 83.4514C19.9414 82.2268 19.9144 80.9406 20.184 79.703C20.5162 78.2615 21.4142 75.7444 24.6096 74.9433C27.9281 74.12 30.8006 76.8674 33.0579 79.4948L39.1935 86.4152V38.228C39.1935 36.5909 39.8394 34.0392 41.0695 32.992C42.1198 32.0532 43.4594 31.5248 44.8524 31.5C46.1263 31.5413 47.3442 32.0467 48.2877 32.9257C49.81 34.4555 50.0561 36.3354 50.0561 37.8652V67.3952C50.0561 67.3952 50.3298 57.9987 56.8498 57.9956C57.5225 57.9909 58.1883 58.135 58.8018 58.418C59.4153 58.7011 59.9621 59.1164 60.405 59.6358C62.7577 62.585 62.6993 68.4897 62.6993 68.4897C62.6993 68.4897 62.6132 61.1088 68.5734 61.153C74.9704 61.2034 74.3215 72.3757 74.2692 73.2147C74.2692 73.2147 74.4384 67.2627 79.0177 67.1775C86.0913 67.0451 84.9195 77.4257 84.938 92.525C84.9595 108.511 69.6683 115.488 60.8971 115.488Z" stroke="white" stroke-width="4" stroke-linejoin="round"/>
<defs>
<clipPath id="clip0_1759_9218">
<rect width="49" height="49" fill="white" transform="translate(49 0.5) rotate(90)"/>
</clipPath>
</defs>
</svg>
