<svg width="278" height="118" viewBox="0 0 278 118" fill="none" xmlns="http://www.w3.org/2000/svg">
<mask id="path-1-inside-1_1684_9459" fill="white">
<rect x="124" y="68" width="50" height="50" rx="5"/>
</mask>
<rect x="124" y="68" width="50" height="50" rx="5" stroke="white" stroke-width="12" mask="url(#path-1-inside-1_1684_9459)"/>
<g opacity="0.3">
<mask id="path-2-inside-2_1684_9459" fill="white">
<rect x="176" y="118" width="50" height="50" rx="5" transform="rotate(-90 176 118)"/>
</mask>
<rect x="176" y="118" width="50" height="50" rx="5" transform="rotate(-90 176 118)" stroke="white" stroke-width="12" mask="url(#path-2-inside-2_1684_9459)"/>
<mask id="path-3-inside-3_1684_9459" fill="white">
<rect x="226" y="16" width="50" height="50" rx="5" transform="rotate(90 226 16)"/>
</mask>
<rect x="226" y="16" width="50" height="50" rx="5" transform="rotate(90 226 16)" stroke="white" stroke-width="12" mask="url(#path-3-inside-3_1684_9459)"/>
<path d="M201 100L194.938 89.5L207.062 89.5L201 100Z" fill="white"/>
<path d="M201 34L207.062 44.5H194.938L201 34Z" fill="white"/>
</g>
<mask id="path-6-inside-4_1684_9459" fill="white">
<rect x="278" y="118" width="50" height="50" rx="5" transform="rotate(-180 278 118)"/>
</mask>
<rect x="278" y="118" width="50" height="50" rx="5" transform="rotate(-180 278 118)" stroke="white" stroke-width="12" mask="url(#path-6-inside-4_1684_9459)"/>
<g clip-path="url(#clip0_1684_9459)">
<path d="M18.375 38.7916L21.2537 35.9128L11.9029 26.5416L44.9166 26.5416L44.9166 22.4583L11.9029 22.4583L21.2741 13.087L18.375 10.2083L4.0833 24.4999L18.375 38.7916Z" fill="white"/>
</g>
<path d="M66.625 10.2084L63.7463 13.0872L73.0971 22.4584L40.0834 22.4584L40.0834 26.5417L73.0971 26.5417L63.7259 35.913L66.625 38.7917L80.9167 24.5001L66.625 10.2084Z" fill="white"/>
<path d="M142 93L152.5 86.9378L152.5 99.0622L142 93Z" fill="white"/>
<path d="M260 93L249.5 99.0622L249.5 86.9378L260 93Z" fill="white"/>
<path d="M60.8971 114.988C60.8971 114.988 49.8254 115.644 41.5216 107.336C35.1062 100.926 25.8983 90.6182 22.0293 86.2338C21.1904 85.3023 20.5842 84.1759 20.2628 82.9514C19.9414 81.7268 19.9144 80.4406 20.184 79.203C20.5162 77.7615 21.4142 75.2444 24.6096 74.4433C27.9281 73.62 30.8006 76.3674 33.0579 78.9948L39.1935 85.9152V37.728C39.1935 36.0909 39.8394 33.5392 41.0695 32.492C42.1198 31.5532 43.4594 31.0248 44.8524 31C46.1263 31.0413 47.3442 31.5467 48.2877 32.4257C49.81 33.9555 50.0561 35.8354 50.0561 37.3652V66.8952C50.0561 66.8952 50.3298 57.4987 56.8498 57.4956C57.5225 57.4909 58.1883 57.635 58.8018 57.918C59.4153 58.2011 59.9621 58.6164 60.405 59.1358C62.7577 62.085 62.6993 67.9897 62.6993 67.9897C62.6993 67.9897 62.6132 60.6088 68.5734 60.653C74.9704 60.7034 74.3215 71.8757 74.2692 72.7147C74.2692 72.7147 74.4384 66.7627 79.0177 66.6775C86.0913 66.5451 84.9195 76.9257 84.938 92.025C84.9595 108.011 69.6683 114.988 60.8971 114.988Z" stroke="white" stroke-width="4" stroke-linejoin="round"/>
<defs>
<clipPath id="clip0_1684_9459">
<rect width="49" height="49" fill="white" transform="translate(49) rotate(90)"/>
</clipPath>
</defs>
</svg>
