<svg width="85" height="111" viewBox="0 0 85 111" fill="none" xmlns="http://www.w3.org/2000/svg">
<path d="M82.9809 16.1472C82.9809 16.0834 82.9649 16.0195 82.9554 15.9525L82.9363 15.8248C82.755 14.8856 82.2129 14.0554 81.4266 13.5133L68.9352 0.997978C68.2952 0.361804 67.4303 0.0048572 66.529 0.0048572C65.6276 0.0048572 64.7628 0.361804 64.1227 0.997978V0.997978C63.4881 1.63957 63.132 2.50652 63.132 3.41005C63.132 4.31357 63.4881 5.18051 64.1227 5.82211L71.1647 12.8683H11.8385L18.8677 5.82211C19.5059 5.18281 19.8646 4.31557 19.8648 3.41117C19.8651 2.50677 19.507 1.6393 18.8693 0.999576C18.2315 0.359857 17.3664 0.000299558 16.4642 1.87094e-07C15.562 -0.000299184 14.6966 0.358683 14.0584 0.997978L1.57337 13.5133C0.787835 14.0555 0.246691 14.8858 0.0668838 15.8248C0.0668838 15.8694 0.0668846 15.911 0.0477748 15.9525C0.0286651 15.994 0.0254813 16.0834 0.0191114 16.1472C0.00642523 16.2628 4.41577e-05 16.379 0 16.4952V16.4952C4.41577e-05 16.6115 0.00642523 16.7276 0.0191114 16.8432C0.0191114 16.9071 0.03822 16.9709 0.0477748 17.038C0.0573297 17.105 0.0477741 17.121 0.0668838 17.1625C0.243578 18.1061 0.78505 18.9415 1.57337 19.4867L14.0584 32.002C14.3744 32.3186 14.7495 32.5696 15.1623 32.7409C15.5751 32.9121 16.0174 33.0001 16.4642 33C16.9109 32.9999 17.3532 32.9115 17.7659 32.74C18.1786 32.5685 18.5535 32.3172 18.8693 32.0004C19.1851 31.6837 19.4355 31.3077 19.6063 30.8939C19.7772 30.4801 19.865 30.0366 19.8648 29.5888C19.8647 29.141 19.7766 28.6976 19.6055 28.2839C19.4344 27.8703 19.1837 27.4944 18.8677 27.1779L11.8385 20.1253H71.1647L64.1323 27.1747C63.4977 27.8163 63.1416 28.6832 63.1416 29.5868C63.1416 30.4903 63.4977 31.3572 64.1323 31.9988C64.7723 32.635 65.6372 32.992 66.5385 32.992C67.4399 32.992 68.3047 32.635 68.9448 31.9988L81.4266 19.4867C82.2138 18.9441 82.7561 18.1125 82.9363 17.1721L82.9554 17.0475C82.9554 16.9805 82.9745 16.9166 82.9809 16.8528C82.9936 16.7372 82.9999 16.6211 83 16.5048V16.5048C83.0003 16.3853 82.9939 16.266 82.9809 16.1472V16.1472Z" fill="white"/>
<path d="M60.1554 110.988C60.1554 110.988 48.7431 111.644 40.1838 103.336C33.571 96.9262 24.0797 86.6182 20.0918 82.2338C19.227 81.3023 18.6022 80.1759 18.2709 78.9514C17.9396 77.7268 17.9117 76.4406 18.1897 75.203C18.5321 73.7615 19.4578 71.2444 22.7515 70.4433C26.172 69.62 29.1329 72.3674 31.4597 74.9948L37.7841 81.9152V33.728C37.7841 32.0909 38.4498 29.5392 39.7178 28.492C40.8004 27.5532 42.1813 27.0248 43.6171 27C44.9302 27.0413 46.1856 27.5467 47.158 28.4257C48.7272 29.9555 48.9809 31.8354 48.9809 33.3652V62.8952C48.9809 62.8952 49.263 53.4987 55.9836 53.4956C56.677 53.4909 57.3633 53.635 57.9957 53.918C58.6281 54.2011 59.1917 54.6164 59.6482 55.1358C62.0734 58.085 62.0131 63.9897 62.0131 63.9897C62.0131 63.9897 61.9244 56.6088 68.068 56.653C74.6618 56.7034 73.9929 67.8757 73.939 68.7147C73.939 68.7147 74.1134 62.7627 78.8337 62.6775C86.1249 62.5451 84.9171 72.9257 84.9361 88.025C84.9583 104.011 69.1966 110.988 60.1554 110.988Z" fill="white"/>
</svg>
