<svg width="222" height="145" viewBox="0 0 222 145" fill="none" xmlns="http://www.w3.org/2000/svg">
<path d="M168.991 91.7799C168.566 91.7799 167.487 91.9263 166.377 92.271C166.094 88.4969 162.932 85.5133 159.086 85.5133C157.332 85.5133 155.72 86.1341 154.459 87.168C153.428 84.3759 150.74 82.3796 147.596 82.3796C145.767 82.3796 143.886 82.9392 142.373 84.0219V76.4139C146.704 74.0074 149.648 69.3991 149.648 64.1013C149.648 56.3257 143.323 50 135.547 50C127.771 50 121.446 56.3257 121.446 64.1013C121.446 69.3188 124.3 73.8718 128.523 76.3096L128.597 109.268L122.58 102.954C120.961 101.333 118.82 100.441 116.551 100.441C114.282 100.441 112.14 101.333 110.522 102.954C107.176 106.3 107.168 111.738 110.447 115.013C110.502 115.075 115.951 121.149 123.725 128.924L124.99 130.193C132.362 137.605 138.727 144.006 151.468 144.006C164.659 144.006 169.073 137.386 172.463 130.605C175.724 124.084 175.761 99.1057 175.761 98.0482C175.762 94.7068 172.598 91.7794 168.99 91.7794L168.991 91.7799ZM169.66 129.203C166.468 135.587 162.897 140.872 151.469 140.872C140.031 140.872 134.374 135.185 127.212 127.983L125.94 126.708C118.231 118.999 112.835 112.982 112.722 112.86C111.698 111.834 111.133 110.468 111.137 109.017C111.141 107.563 111.709 106.196 112.738 105.168C113.765 104.14 115.12 103.573 116.552 103.573C117.983 103.573 119.337 104.14 120.338 105.14L129.039 114.271C129.484 114.737 130.167 114.883 130.757 114.644C131.352 114.405 131.741 113.828 131.74 113.187L131.631 65.1426C131.631 62.9743 132.66 60.4425 135.562 60.4425C138.976 60.4425 139.24 64.0395 139.24 65.1426V94.389C139.24 95.2545 139.942 95.9555 140.806 95.9555C141.671 95.9555 142.373 95.2545 142.373 94.389V90.2113C142.373 86.7622 145.496 85.5112 147.596 85.5112C149.9 85.5112 151.773 87.3851 151.773 89.6889V95.4339C151.773 96.2994 152.475 97.0003 153.34 97.0003C154.205 97.0003 154.906 96.2994 154.906 95.4339V92.8226C154.906 90.5181 156.78 88.6449 159.084 88.6449C161.388 88.6449 163.262 90.5189 163.262 92.8226V99.6116C163.262 100.476 163.963 101.178 164.828 101.178C165.693 101.178 166.394 100.476 166.394 99.6116V95.6217C167.021 95.3164 168.249 94.9106 168.987 94.9106C170.856 94.9106 172.624 96.4334 172.624 98.0443C172.628 105.062 172.093 124.336 169.659 129.203L169.66 129.203Z" fill="white"/>
<line x1="135.5" y1="2.18557e-08" x2="135.5" y2="50" stroke="white"/>
<line x1="4.37114e-08" y1="63.5" x2="122" y2="63.5" stroke="white"/>
<line x1="149" y1="63.5" x2="222" y2="63.5" stroke="white"/>
<line x1="15" y1="8" x2="72" y2="8" stroke="white" stroke-width="2"/>
<line x1="15" y1="15" x2="72" y2="15" stroke="white" stroke-width="2"/>
<line x1="15" y1="22" x2="72" y2="22" stroke="white" stroke-width="2"/>
<line x1="15" y1="29" x2="60" y2="29" stroke="white" stroke-width="2"/>
<path d="M190 27.5L177.25 34.8612L177.25 20.1388L190 27.5Z" fill="white"/>
<path d="M17.925 122C17.925 120.717 18.9675 119.675 20.25 119.675H23.25V118.25H20.25C18.18 118.25 16.5 119.93 16.5 122C16.5 124.07 18.18 125.75 20.25 125.75H23.25V124.325H20.25C18.9675 124.325 17.925 123.283 17.925 122ZM21 122.75H27V121.25H21V122.75ZM27.75 118.25H24.75V119.675H27.75C29.0325 119.675 30.075 120.717 30.075 122C30.075 123.283 29.0325 124.325 27.75 124.325H24.75V125.75H27.75C29.82 125.75 31.5 124.07 31.5 122C31.5 119.93 29.82 118.25 27.75 118.25Z" fill="white"/>
<path d="M199.925 122C199.925 120.717 200.967 119.675 202.25 119.675H205.25V118.25H202.25C200.18 118.25 198.5 119.93 198.5 122C198.5 124.07 200.18 125.75 202.25 125.75H205.25V124.325H202.25C200.967 124.325 199.925 123.283 199.925 122ZM203 122.75H209V121.25H203V122.75ZM209.75 118.25H206.75V119.675H209.75C211.033 119.675 212.075 120.717 212.075 122C212.075 123.283 211.033 124.325 209.75 124.325H206.75V125.75H209.75C211.82 125.75 213.5 124.07 213.5 122C213.5 119.93 211.82 118.25 209.75 118.25Z" fill="white"/>
</svg>
