<svg width="222" height="145" viewBox="0 0 222 145" fill="none" xmlns="http://www.w3.org/2000/svg">
<path d="M168.991 91.7799C168.566 91.7799 167.487 91.9263 166.377 92.271C166.094 88.4969 162.932 85.5133 159.086 85.5133C157.332 85.5133 155.72 86.1341 154.459 87.168C153.428 84.3759 150.74 82.3796 147.596 82.3796C145.767 82.3796 143.886 82.9392 142.373 84.0219V76.4139C146.704 74.0074 149.648 69.3991 149.648 64.1013C149.648 56.3257 143.323 50 135.547 50C127.771 50 121.446 56.3257 121.446 64.1013C121.446 69.3188 124.3 73.8718 128.523 76.3096L128.597 109.268L122.58 102.954C120.961 101.333 118.82 100.441 116.551 100.441C114.282 100.441 112.14 101.333 110.522 102.954C107.176 106.3 107.168 111.738 110.447 115.013C110.502 115.075 115.951 121.149 123.725 128.924L124.99 130.193C132.362 137.605 138.727 144.006 151.468 144.006C164.659 144.006 169.073 137.386 172.463 130.605C175.724 124.084 175.761 99.1057 175.761 98.0482C175.762 94.7068 172.598 91.7794 168.99 91.7794L168.991 91.7799ZM169.66 129.203C166.468 135.587 162.897 140.872 151.469 140.872C140.031 140.872 134.374 135.185 127.212 127.983L125.94 126.708C118.231 118.999 112.835 112.982 112.722 112.86C111.698 111.834 111.133 110.468 111.137 109.017C111.141 107.563 111.709 106.196 112.738 105.168C113.765 104.14 115.12 103.573 116.552 103.573C117.983 103.573 119.337 104.14 120.338 105.14L129.039 114.271C129.484 114.737 130.167 114.883 130.757 114.644C131.352 114.405 131.741 113.828 131.74 113.187L131.631 65.1426C131.631 62.9743 132.66 60.4425 135.562 60.4425C138.976 60.4425 139.24 64.0395 139.24 65.1426V94.389C139.24 95.2545 139.942 95.9555 140.806 95.9555C141.671 95.9555 142.373 95.2545 142.373 94.389V90.2113C142.373 86.7622 145.496 85.5112 147.596 85.5112C149.9 85.5112 151.773 87.3851 151.773 89.6889V95.4339C151.773 96.2994 152.475 97.0003 153.34 97.0003C154.205 97.0003 154.906 96.2994 154.906 95.4339V92.8226C154.906 90.5181 156.78 88.6449 159.084 88.6449C161.388 88.6449 163.262 90.5189 163.262 92.8226V99.6116C163.262 100.476 163.963 101.178 164.828 101.178C165.693 101.178 166.394 100.476 166.394 99.6116V95.6217C167.021 95.3164 168.249 94.9106 168.987 94.9106C170.856 94.9106 172.624 96.4334 172.624 98.0443C172.628 105.062 172.093 124.336 169.659 129.203L169.66 129.203Z" fill="white"/>
<path d="M157.372 68.035C157.565 68.1946 157.801 68.2776 158.042 68.2776C158.192 68.2776 158.344 68.2456 158.485 68.1793C158.851 68.0066 159.086 67.6379 159.086 67.2328V65.7968H163.264V69.9745H162.219C161.814 69.9745 161.445 70.4051 161.274 70.7715C161.101 71.1395 161.158 71.6699 161.417 71.981L164.028 75.1634C164.226 75.4017 164.521 75.5634 164.831 75.5634C165.141 75.5634 165.435 75.4381 165.634 75.1999L168.245 72.0727C168.504 71.7615 168.561 71.1357 168.388 70.7677C168.216 70.402 167.847 69.9743 167.442 69.9743H166.397V65.7966H170.575V67.2327C170.575 67.6378 170.81 68.0064 171.177 68.1791C171.318 68.2447 171.468 68.2775 171.62 68.2775C171.859 68.2775 172.097 68.1951 172.289 68.0349L175.423 65.4236C175.661 65.2254 175.798 64.931 175.798 64.6214C175.798 64.3125 175.661 64.0174 175.423 63.8192L172.289 61.2079C171.977 60.9485 171.543 60.8924 171.178 61.0636C170.81 61.2349 170.576 61.6043 170.576 62.0101V62.6629H166.398V58.4852H167.443C167.848 58.4852 168.217 58.4466 168.388 58.0787C168.561 57.7107 168.504 57.3756 168.245 57.0645L165.634 53.9803C165.236 53.5038 164.426 53.5279 164.029 54.0044L161.417 57.1504C161.158 57.4615 161.102 57.7064 161.275 58.0728C161.446 58.4401 161.814 58.4852 162.22 58.4852H163.264V62.6629H159.087V62.0101C159.087 61.605 158.851 61.2363 158.485 61.0636C158.121 60.8946 157.686 60.9478 157.374 61.2079L154.24 63.8192C154.001 64.0166 153.863 64.311 153.863 64.6214C153.863 64.9318 154.001 65.2254 154.239 65.4236L157.372 68.035Z" fill="white"/>
<line x1="135.5" y1="2.18557e-08" x2="135.5" y2="50" stroke="white"/>
<line x1="4.37114e-08" y1="63.5" x2="122" y2="63.5" stroke="white"/>
<line x1="149" y1="63.5" x2="222" y2="63.5" stroke="white"/>
</svg>
